<?xml version="1.0" encoding="utf-8"?>
<!DOCTYPE svg PUBLIC "-//W3C//DTD SVG 1.1//EN" "http://www.w3.org/Graphics/SVG/1.1/DTD/svg11.dtd">
<svg version="1.1" xmlns="http://www.w3.org/2000/svg" xmlns:xlink="http://www.w3.org/1999/xlink" x="0px" y="0px" viewBox="0 0 1000 1000" enable-background="new 0 0 1000 1000" xml:space="preserve">
<metadata> Container SVG </metadata>
<g><g><path style="stroke:#424e6e;stroke-width:0.25mm;fill:#424e6e" d="M944.1,438.8c0-25.3-20.6-45.9-45.9-45.9c-13.4,0-25.5,5.8-33.9,15L560.6,279.3c0.4-2.9,0.7-5.9,0.7-9c0-28.5-19.6-52.5-45.9-59.3v-18.9c17.8-5,31.4-20.4,33.3-39.7l12.6-125.5c0.4-4.3-1-8.6-3.9-11.8c-2.9-3.2-7-5-11.4-5h-91.9c-4.3,0-8.5,1.8-11.4,5c-2.9,3.2-4.3,7.5-3.9,11.8l12.6,125.5c1.9,19.3,15.5,34.7,33.3,39.7v32.3c0,8.5,6.9,15.3,15.3,15.3c15.6,0,28.5,11.7,30.4,26.8L506,256.2c-7.8-3.3-16.8,0.3-20.1,8.1c-3.3,7.8,0.3,16.8,8.1,20.1l24.4,10.3c-5.1,3.9-11.5,6.2-18.4,6.2c-16.9,0-30.6-13.7-30.6-30.6c0-8.5-6.9-15.3-15.3-15.3s-15.3,6.9-15.3,15.3c0,3.1,0.2,6.1,0.7,9L135.8,407.8c-8.4-9.2-20.5-15-33.9-15c-25.3,0-45.9,20.6-45.9,45.9c-25.3,0-45.9,20.6-45.9,45.9v459.4c0,25.3,20.6,45.9,45.9,45.9h888.1c25.3,0,45.9-20.6,45.9-45.9V484.7C990,459.4,969.4,438.8,944.1,438.8z M471,40.6h58l-10.9,108.7c-0.8,7.9-7.3,13.8-15.2,13.8h-5.8c-7.9,0-14.5-5.9-15.2-13.8L471,40.6z M898.1,423.4c8.4,0,15.3,6.9,15.3,15.3h-30.6C882.8,430.3,889.7,423.4,898.1,423.4z M451.4,307.5c11.2,14.6,28.8,24.1,48.6,24.1c19.8,0,37.4-9.4,48.6-24.1L852.3,436c-0.1,0.9-0.1,1.8-0.1,2.8H147.8c0-0.9,0-1.9-0.1-2.8L451.4,307.5z M101.9,423.4c8.4,0,15.3,6.9,15.3,15.3H86.6C86.6,430.3,93.4,423.4,101.9,423.4z M959.4,944.1c0,8.4-6.9,15.3-15.3,15.3H55.9c-8.4,0-15.3-6.9-15.3-15.3V484.7c0-8.4,6.9-15.3,15.3-15.3h888.1c8.4,0,15.3,6.9,15.3,15.3V944.1z"/><path style="stroke:#424e6e;stroke-width:0.25mm;fill:#424e6e" d="M500,530.6c-8.5,0-15.3,6.9-15.3,15.3v336.9c0,8.5,6.9,15.3,15.3,15.3c8.5,0,15.3-6.9,15.3-15.3V545.9C515.3,537.5,508.5,530.6,500,530.6z"/><path style="stroke:#424e6e;stroke-width:0.25mm;fill:#424e6e" d="M423.4,530.6c-8.5,0-15.3,6.9-15.3,15.3v336.9c0,8.5,6.9,15.3,15.3,15.3s15.3-6.9,15.3-15.3V545.9C438.8,537.5,431.9,530.6,423.4,530.6z"/><path style="stroke:#424e6e;stroke-width:0.25mm;fill:#424e6e" d="M346.9,530.6c-8.5,0-15.3,6.9-15.3,15.3v336.9c0,8.5,6.9,15.3,15.3,15.3s15.3-6.9,15.3-15.3V545.9C362.2,537.5,355.3,530.6,346.9,530.6z"/><path style="stroke:#424e6e;stroke-width:0.25mm;fill:#424e6e" d="M270.3,530.6c-8.5,0-15.3,6.9-15.3,15.3v336.9c0,8.5,6.9,15.3,15.3,15.3s15.3-6.9,15.3-15.3V545.9C285.6,537.5,278.8,530.6,270.3,530.6z"/><path style="stroke:#424e6e;stroke-width:0.25mm;fill:#424e6e" d="M806.3,530.6c-8.5,0-15.3,6.9-15.3,15.3v336.9c0,8.5,6.9,15.3,15.3,15.3s15.3-6.9,15.3-15.3V545.9C821.6,537.5,814.7,530.6,806.3,530.6z"/><path style="stroke:#424e6e;stroke-width:0.25mm;fill:#424e6e" d="M882.8,530.6c-8.5,0-15.3,6.9-15.3,15.3v336.9c0,8.5,6.9,15.3,15.3,15.3s15.3-6.9,15.3-15.3V545.9C898.1,537.5,891.3,530.6,882.8,530.6z"/><path style="stroke:#424e6e;stroke-width:0.25mm;fill:#424e6e" d="M193.8,530.6c-8.5,0-15.3,6.9-15.3,15.3v336.9c0,8.5,6.9,15.3,15.3,15.3s15.3-6.9,15.3-15.3V545.9C209.1,537.5,202.2,530.6,193.8,530.6z"/><path style="stroke:#424e6e;stroke-width:0.25mm;fill:#424e6e" d="M117.2,530.6c-8.5,0-15.3,6.9-15.3,15.3v336.9c0,8.5,6.9,15.3,15.3,15.3s15.3-6.9,15.3-15.3V545.9C132.5,537.5,125.6,530.6,117.2,530.6z"/><path style="stroke:#424e6e;stroke-width:0.25mm;fill:#424e6e" d="M729.7,530.6c-8.5,0-15.3,6.9-15.3,15.3v336.9c0,8.5,6.9,15.3,15.3,15.3s15.3-6.9,15.3-15.3V545.9C745,537.5,738.1,530.6,729.7,530.6z"/><path style="stroke:#424e6e;stroke-width:0.25mm;fill:#424e6e" d="M653.1,530.6c-8.5,0-15.3,6.9-15.3,15.3v336.9c0,8.5,6.9,15.3,15.3,15.3s15.3-6.9,15.3-15.3V545.9C668.4,537.5,661.6,530.6,653.1,530.6z"/><path style="stroke:#424e6e;stroke-width:0.25mm;fill:#424e6e" d="M576.6,530.6c-8.5,0-15.3,6.9-15.3,15.3v336.9c0,8.5,6.9,15.3,15.3,15.3s15.3-6.9,15.3-15.3V545.9C591.9,537.5,585,530.6,576.6,530.6z"/></g><g></g><g></g><g></g><g></g><g></g><g></g><g></g><g></g><g></g><g></g><g></g><g></g><g></g><g></g><g></g></g>
</svg>