<?xml version="1.0" encoding="utf-8"?>
<!DOCTYPE svg PUBLIC "-//W3C//DTD SVG 1.1//EN" "http://www.w3.org/Graphics/SVG/1.1/DTD/svg11.dtd">
<svg version="1.1" xmlns="http://www.w3.org/2000/svg" xmlns:xlink="http://www.w3.org/1999/xlink" x="0px" y="0px" viewBox="0 0 1000 1000" enable-background="new 0 0 1000 1000" xml:space="preserve">
<metadata> Package SVG </metadata>
<g><g style="stroke:#424e6e;stroke-width:0.25mm;fill:#424e6e" transform="translate(0.000000,511.000000) scale(0.100000,-0.100000)"><path d="M4695.9,4648.3c-1073.2-204.8-1692-1303.7-1307.9-2323.5c153.6-403.3,501.4-772.4,900.4-953.7c542-245.4,1224.7-181.4,1702.6,160c497.2,354.2,770.3,921.7,731.9,1523.4c-17.1,262.4-57.6,413.9-175,655c-275.2,569.7-832.1,930.3-1482.9,960.1C4937,4676,4800.5,4667.5,4695.9,4648.3z M5180.2,4016.7c6.4-36.3,12.8-89.6,12.8-117.3c0-27.7,10.7-51.2,23.5-51.2c12.8,0,81.1-25.6,149.4-55.5l123.7-55.5l87.5,68.3l89.6,70.4l119.5-119.5c115.2-115.2,117.3-119.5,83.2-168.6c-108.8-151.5-106.7-128-46.9-253.9c29.9-64,53.3-125.9,53.3-138.7c0-14.9,53.3-32,117.4-40.5l117.4-12.8v-170.7c0-183.5,4.3-179.2-155.8-194.2c-53.3-6.4-68.3-25.6-121.6-153.6l-61.9-147.2l61.9-76.8c36.3-40.5,64-85.3,64-98.1s-51.2-72.5-110.9-132.3L5673.1,2058l-93.9,70.4l-93.9,70.4l-108.8-46.9c-59.7-25.6-125.9-53.3-145.1-59.7c-23.5-8.5-38.4-36.3-38.4-72.6c0-147.2-10.7-155.8-192-155.8c-181.4,0-192,8.5-192,155.8c0,36.3-14.9,64-36.3,72.6c-21.3,6.4-87.5,34.1-147.2,59.7l-108.8,46.9l-93.9-70.4l-93.9-70.4L4218,2169c-61.9,59.8-113.1,119.5-113.1,132.3s27.7,57.6,64,100.3l64,76.8l-51.2,115.2c-27.7,61.9-55.5,130.1-61.9,151.5c-10.7,25.6-36.3,36.3-87.5,36.3c-134.4,0-140.8,8.5-140.8,192v168.6l117.4,12.8c64,8.5,117.3,25.6,117.3,40.5c0,12.8,23.5,74.7,53.3,136.6l53.3,115.2l-68.3,93.9l-68.3,96l119.5,119.5l119.5,119.5l89.6-70.4l87.5-68.3l123.8,55.5c68.3,29.9,136.6,55.5,149.4,55.5c12.8,0,23.5,23.5,23.5,51.2c0,27.7,6.4,81.1,12.8,117.3l14.9,66.1H5001h166.4L5180.2,4016.7z"/><path d="M4813.3,3530.3c-151.5-51.2-258.2-140.8-332.9-277.4c-121.6-224-91.7-482.2,76.8-674.2c132.3-151.5,226.2-192,443.8-192s311.5,40.5,445.9,194.2c283.8,324.3,134.4,834.3-279.5,958C5026.6,3579.3,4952,3579.3,4813.3,3530.3z"/><path d="M7147.5,3703.1c91.8-264.6,119.5-445.9,121.6-751c0-311.5-32-509.9-128-772.4c-27.7-83.2-44.8-157.9-34.1-164.3c8.5-8.5,170.7-111,356.3-226.2c1013.5-620.9,1233.2-763.8,1205.5-778.8c-117.4-64-4162.8-1559.7-4190.5-1549c-10.7,4.3-616.6,495-1344.2,1088.2c-727.6,593.2-1325,1071.1-1329.3,1060.4c-4.3-10.7-23.5-14.9-42.7-10.7c-27.8,8.5-1634.4-591-1662.1-618.8c-4.3-4.3,367-341.4,825.7-751l832.1-744.7l-12.8-874.8l-12.8-874.8l1333.5-1094.6l1335.7-1092.4h143c140.8,0,181.4,17.1,2176.3,857.7l2035.5,855.6l4.3,896.1l6.4,896.1L9330.2-705c309.4,132.3,565.4,245.4,569.7,249.6c6.4,4.3-249.6,320-565.4,702c-354.2,426.7-576.1,712.6-580.3,746.8c-8.5,53.3,89.6,181.4,891.9,1160.7l177.1,217.6l-1331.4,727.6c-729.7,399-1344.2,731.8-1363.4,740.4C7100.5,3850.3,7104.8,3826.8,7147.5,3703.1z M4356.7-709.3l46.9-32v-1717.6c0-943.1-4.3-1715.5-12.8-1715.5c-6.4,0-559,450.2-1231.1,1000.7L1941.4-2170.8l6.4,674.2c2.1,369.1,12.8,695.6,19.2,723.3c14.9,46.9,42.7,25.6,394.7-290.2l379.8-341.4l100.3,42.7c55.5,25.6,399,187.8,761.7,364.9c364.9,177.1,672.1,322.2,682.8,322.2C4299.1-675.2,4331.1-690.1,4356.7-709.3z M5148.2-1607.6l473.7-687l143,61.9c78.9,32,736.1,313.7,1461.5,625.2l1316.5,565.4v-783v-780.9L6597-3425.4c-1071.1-450.2-1954.4-823.6-1963-827.9c-10.7-4.3-17.1,757.4-17.1,1694.1c0,1455.1,4.3,1696.2,29.9,1670.6C4663.9-905.6,4890.1-1229.9,5148.2-1607.6z"/><path d="M1856,3355.3c-516.3-140.8-943.1-258.2-947.3-262.4c-8.5-10.7,757.4-1397.5,798-1440.2c21.3-23.5,106.7-2.1,522.7,125.9c275.2,85.3,544.1,168.6,599.6,183.5l98.1,29.9l-59.7,166.4c-34.2,91.8-76.8,243.2-98.2,337.1c-64,296.6-40.5,855.6,44.8,1081.8c8.5,19.2,6.4,34.1-2.1,34.1C2801.2,3609.2,2370.2,3494,1856,3355.3z"/></g></g>
</svg>