<svg id="mee" width="100.4" height="100.6" viewBox="0 0 228.4 79.6" xmlns="http://www.w3.org/2000/svg" class="astro-DMQPWCEC"><g id="svgGroup" stroke-linecap="round" fill-rule="evenodd" font-size="9pt" stroke="#000" stroke-width="0.25mm" fill="#000" style="stroke:#fff;stroke-width:0.25mm;fill:#fff" class="astro-DMQPWCEC"><path d="M 36.4 53.1 L 36.8 53.1 A 0.72 0.72 0 0 1 36.998 53.125 Q 37.3 53.211 37.3 53.6 Q 37.3 54.043 36.947 54.29 A 1.111 1.111 0 0 1 36.85 54.35 Q 36.4 54.6 35.9 54.7 A 19.451 19.451 0 0 1 34.209 54.959 A 21.948 21.948 0 0 1 33.8 55 A 20.498 20.498 0 0 0 32.206 55.206 A 18.197 18.197 0 0 0 31.7 55.3 Q 28.9 55.6 26.15 55.8 Q 23.4 56 20.6 56 A 44.358 44.358 0 0 1 18.584 55.951 Q 16.788 55.869 14.6 55.65 Q 11.1 55.3 7.75 54.3 A 14.578 14.578 0 0 1 4.515 52.913 A 12 12 0 0 1 2.2 51.15 Q 0 49 0 45.4 A 12.702 12.702 0 0 1 0.82 40.986 A 17.01 17.01 0 0 1 2.1 38.3 Q 4.2 34.7 6.4 32.1 A 62.092 62.092 0 0 1 10.909 27.391 A 79.826 79.826 0 0 1 15.05 23.75 A 112.968 112.968 0 0 1 24.5 16.794 A 124.129 124.129 0 0 1 25.95 15.85 Q 31.8 12.1 37.7 9.15 Q 43.6 6.2 48.8 4.4 A 77.475 77.475 0 0 1 55.96 2.279 A 95.32 95.32 0 0 1 60.65 1.25 A 69.194 69.194 0 0 1 68.459 0.176 A 57.438 57.438 0 0 1 72.9 0 Q 76.9 0 80.75 0.95 A 14.764 14.764 0 0 1 84.572 2.453 A 12.632 12.632 0 0 1 87.15 4.4 A 7.923 7.923 0 0 1 89.14 7.734 Q 89.525 8.95 89.645 10.416 A 16.918 16.918 0 0 1 89.7 11.8 Q 89.7 13.8 89.3 15.8 Q 88.9 17.8 88.2 19.8 Q 85.9 26.7 82.7 33.5 Q 79.5 40.3 76 46.9 Q 77.343 45.781 79.298 44.495 A 63.251 63.251 0 0 1 80.7 43.6 A 14.439 14.439 0 0 1 82.733 42.539 Q 83.878 42.06 84.954 41.891 A 7.407 7.407 0 0 1 86.1 41.8 L 86.6 41.8 A 3.282 3.282 0 0 1 87.679 42.209 A 2.856 2.856 0 0 1 88.75 43.4 A 9.664 9.664 0 0 1 89.572 45.819 A 11.072 11.072 0 0 1 89.65 46.25 A 45.537 45.537 0 0 1 89.84 47.539 Q 89.918 48.129 89.969 48.656 A 25.638 25.638 0 0 1 90 49 A 48.282 48.282 0 0 1 90.257 53.971 A 48.064 48.064 0 0 1 90.25 54.8 A 112.147 112.147 0 0 0 90.233 56.733 A 112.191 112.191 0 0 0 90.3 60.6 Q 90.399 60.797 90.449 61.774 A 21.929 21.929 0 0 1 90.45 61.8 A 17.197 17.197 0 0 0 90.581 63.244 A 14.968 14.968 0 0 0 90.65 63.7 A 3.216 3.216 0 0 0 90.715 64.006 Q 90.796 64.308 90.921 64.457 A 0.356 0.356 0 0 0 91.2 64.6 A 0.142 0.142 0 0 0 91.255 64.586 Q 91.338 64.55 91.478 64.42 A 2.932 2.932 0 0 0 91.55 64.35 L 91.9 64 Q 93.165 62.826 94.633 60.346 A 36.293 36.293 0 0 0 94.95 59.8 Q 96.6 56.9 98.3 53.35 Q 100 49.8 101.45 46.55 Q 102.688 43.776 103.597 41.986 A 45.999 45.999 0 0 1 103.9 41.4 A 16.207 16.207 0 0 1 103.78 40.546 A 14.012 14.012 0 0 1 103.75 40.25 Q 103.7 39.7 103.7 39.1 A 6.78 6.78 0 0 1 103.724 38.551 Q 103.775 37.937 103.928 37.118 A 22.549 22.549 0 0 1 103.95 37 A 7.924 7.924 0 0 1 104.459 35.331 A 6.988 6.988 0 0 1 104.8 34.65 A 2.618 2.618 0 0 1 105.192 34.119 A 1.628 1.628 0 0 1 106.4 33.6 A 1.224 1.224 0 0 1 107.03 33.759 Q 107.286 33.908 107.464 34.199 A 2.082 2.082 0 0 1 107.65 34.6 A 7.957 7.957 0 0 1 107.849 35.252 Q 107.929 35.565 107.967 35.841 A 3.418 3.418 0 0 1 108 36.3 Q 108 37.6 107.5 38.75 Q 107 39.9 106.5 41 A 17.147 17.147 0 0 1 106.597 41.951 Q 106.676 42.985 106.694 44.428 A 71.859 71.859 0 0 1 106.7 45.35 Q 106.7 48.2 106.8 51.6 Q 106.9 55 107.25 58.25 Q 107.6 61.5 108.25 63.9 Q 108.799 65.926 109.74 66.741 A 2.393 2.393 0 0 0 110.1 67 A 2.681 2.681 0 0 0 110.425 67.168 Q 110.597 67.241 110.755 67.274 A 1.212 1.212 0 0 0 111 67.3 A 3.456 3.456 0 0 0 111.864 67.199 A 2.138 2.138 0 0 0 113.25 66.15 Q 113.9 65 114.2 63.9 A 6.906 6.906 0 0 1 114.308 63.54 Q 114.554 62.8 114.8 62.8 A 0.346 0.346 0 0 1 115.104 62.966 Q 115.146 63.029 115.175 63.116 A 1.018 1.018 0 0 1 115.2 63.2 A 5.703 5.703 0 0 1 115.244 63.388 Q 115.284 63.576 115.296 63.707 A 1.081 1.081 0 0 1 115.3 63.8 A 5.702 5.702 0 0 1 114.938 65.748 Q 114.666 66.499 114.19 67.278 A 11.222 11.222 0 0 1 113.85 67.8 A 6.226 6.226 0 0 1 112.941 68.862 Q 111.806 69.9 110.4 69.9 Q 109.7 69.9 108.5 69.4 A 2.752 2.752 0 0 1 107.683 68.698 Q 107.099 67.982 106.648 66.718 A 13.49 13.49 0 0 1 106.4 65.95 Q 105.602 63.205 105.152 59.714 A 48.844 48.844 0 0 1 105.15 59.7 A 89.834 89.834 0 0 1 104.705 55.481 A 74.037 74.037 0 0 1 104.55 53.1 Q 104.406 50.116 104.4 48.707 A 27.962 27.962 0 0 1 104.4 48.6 L 104.4 46.85 Q 104.4 46 104.5 45.2 Q 103.964 46.195 103.106 47.865 A 390.742 390.742 0 0 0 102.55 48.95 Q 101.3 51.4 99.7 54.3 Q 98.1 57.2 96.45 60 Q 94.8 62.8 93.25 64.8 Q 92.04 66.362 91.104 67.009 A 3.283 3.283 0 0 1 90.6 67.3 Q 90.415 67.393 89.885 67.399 A 6.687 6.687 0 0 1 89.8 67.4 Q 88.8 67.4 88.25 66.25 A 8.628 8.628 0 0 1 87.542 64.007 A 9.77 9.77 0 0 1 87.5 63.75 A 842.373 842.373 0 0 1 87.406 63.116 Q 87.316 62.503 87.252 62.064 A 192.403 192.403 0 0 1 87.2 61.7 Q 86.9 58.9 87 56.1 A 52.296 52.296 0 0 0 87.033 54.233 A 52.383 52.383 0 0 0 86.9 50.5 Q 86.9 49.8 86.85 48.45 Q 86.8 47.1 86.5 45.85 Q 86.332 45.149 85.975 44.779 A 1.312 1.312 0 0 0 85.3 44.4 L 85 44.4 Q 83.997 44.4 82.736 44.914 A 11.781 11.781 0 0 0 81.7 45.4 Q 79.8 46.4 78.05 47.75 Q 76.485 48.958 75.439 49.805 A 69.574 69.574 0 0 0 75.2 50 A 2.091 2.091 0 0 1 75.14 50.057 Q 74.959 50.222 74.35 50.75 A 151.76 151.76 0 0 0 74.092 50.974 Q 73.651 51.358 73.53 51.471 A 1.325 1.325 0 0 0 73.5 51.5 Q 73.302 51.897 73.103 52.195 A 4.932 4.932 0 0 1 73.1 52.2 Q 72.902 52.498 72.703 52.894 A 8.51 8.51 0 0 0 72.7 52.9 Q 72.1 53.9 71.55 55 A 24.422 24.422 0 0 1 70.387 57.063 A 26.709 26.709 0 0 1 70.3 57.2 Q 69.748 58.121 68.433 60.354 A 1602.334 1602.334 0 0 0 68.2 60.75 Q 66.911 62.941 65.216 65.613 A 244.928 244.928 0 0 1 64.65 66.5 Q 62.6 69.7 60.45 72.7 Q 58.3 75.7 56.4 77.65 Q 55 79.087 53.926 79.465 A 2.189 2.189 0 0 1 53.2 79.6 A 2.735 2.735 0 0 1 52.448 79.506 Q 51.605 79.264 51.381 78.404 A 2.799 2.799 0 0 1 51.3 77.7 A 4.336 4.336 0 0 1 51.421 76.739 Q 51.688 75.57 52.55 73.95 A 32.261 32.261 0 0 1 53.981 71.535 Q 54.796 70.28 55.8 68.95 Q 57.8 66.3 59.95 63.65 Q 62.1 61 63.95 58.85 Q 65.366 57.204 66.285 56.173 A 77.192 77.192 0 0 1 66.8 55.6 Q 67.5 54.8 68.15 54.15 L 69.5 52.8 A 3.33 3.33 0 0 1 69.848 52.402 A 2.656 2.656 0 0 1 70.15 52.15 Q 70.5 51.9 70.8 51.5 Q 71.183 50.888 71.771 49.777 A 73.695 73.695 0 0 0 72.15 49.05 Q 72.851 47.69 73.246 46.84 A 22.735 22.735 0 0 0 73.4 46.5 Q 76.6 40.1 79.35 33.4 Q 82.1 26.7 84.3 20 Q 84.8 18.2 85.2 16.3 Q 85.6 14.4 85.6 12.5 Q 85.6 9.571 84.652 7.591 A 6.862 6.862 0 0 0 83.65 6.05 A 10.12 10.12 0 0 0 79.357 3.146 A 12.371 12.371 0 0 0 78.6 2.9 Q 75.5 2 71.9 2 A 47.488 47.488 0 0 0 65.342 2.476 A 60.234 60.234 0 0 0 60.55 3.35 A 91.432 91.432 0 0 0 53.359 5.252 A 75.201 75.201 0 0 0 49.4 6.6 A 71.681 71.681 0 0 0 43.571 9 A 95.659 95.659 0 0 0 38.1 11.75 Q 32.1 15 26.3 19.15 A 100.414 100.414 0 0 0 15.753 27.805 A 92.959 92.959 0 0 0 15.6 27.95 A 65.697 65.697 0 0 0 10.874 32.905 A 50.676 50.676 0 0 0 7.5 37.3 Q 6.4 39.1 5.35 41.35 A 11.075 11.075 0 0 0 4.403 44.467 A 10.063 10.063 0 0 0 4.3 45.9 A 7.134 7.134 0 0 0 4.579 47.944 A 5.458 5.458 0 0 0 6.2 50.5 A 11.083 11.083 0 0 0 9.317 52.446 A 13.928 13.928 0 0 0 10.9 53 Q 13.7 53.8 16.6 54.05 Q 18.594 54.222 20.162 54.276 A 39.216 39.216 0 0 0 21.5 54.3 Q 25.3 54.3 29 53.8 Q 32.7 53.3 36.4 53.1 Z M 137.168 66.168 A 0.288 0.288 0 0 0 137.4 66.3 A 0.583 0.583 0 0 0 137.913 66.036 Q 137.991 65.923 138.039 65.76 A 1.849 1.849 0 0 0 138.1 65.45 Q 138.2 64.6 138.2 64.2 A 27.783 27.783 0 0 1 138.869 63.333 Q 139.646 62.364 140.607 61.328 A 53.568 53.568 0 0 1 142.7 59.2 Q 145.5 56.5 147.8 54.8 Q 147.938 55.556 148.217 56.643 A 56.381 56.381 0 0 0 148.5 57.7 A 31.042 31.042 0 0 0 148.629 58.151 A 34.22 34.22 0 0 0 149.75 61.35 A 11.94 11.94 0 0 0 150.383 62.678 A 9.261 9.261 0 0 0 151.65 64.45 A 4.769 4.769 0 0 0 151.768 64.574 A 3.578 3.578 0 0 0 154.4 65.7 Q 155.088 65.7 155.799 65.251 A 4.787 4.787 0 0 0 156.45 64.75 A 4.742 4.742 0 0 0 156.771 64.432 Q 157.049 64.127 157.221 63.817 A 2.075 2.075 0 0 0 157.5 62.8 A 0.693 0.693 0 0 0 157.494 62.707 Q 157.477 62.577 157.405 62.529 A 0.183 0.183 0 0 0 157.3 62.5 A 0.253 0.253 0 0 0 157.286 62.5 Q 157.138 62.509 157.108 62.694 A 0.666 0.666 0 0 0 157.1 62.8 A 5.053 5.053 0 0 1 156.651 63.456 A 6.532 6.532 0 0 1 156 64.15 A 2.932 2.932 0 0 1 155.951 64.195 A 2.272 2.272 0 0 1 154.4 64.8 A 2.126 2.126 0 0 1 153.566 64.634 Q 152.796 64.309 152.2 63.35 Q 151.3 61.9 150.8 59.85 Q 150.3 57.8 150.1 55.85 A 983.161 983.161 0 0 0 150.085 55.706 Q 149.945 54.344 149.856 53.516 A 148.207 148.207 0 0 0 149.8 53 Q 152.3 51.4 155.7 50.35 Q 157.666 49.743 159.163 48.952 A 12.24 12.24 0 0 0 161.1 47.7 A 1.937 1.937 0 0 0 161.547 47.19 A 2.393 2.393 0 0 0 161.8 46.6 Q 162 45.9 162 45.4 Q 162 45.213 161.961 44.986 A 3.947 3.947 0 0 0 161.9 44.7 A 0.726 0.726 0 0 0 161.858 44.577 Q 161.775 44.394 161.601 44.332 A 0.597 0.597 0 0 0 161.4 44.3 Q 160.481 44.3 159.304 44.58 A 16.837 16.837 0 0 0 158 44.95 A 179.431 179.431 0 0 0 156.809 45.342 Q 155.563 45.756 154.6 46.1 Q 154.2 46.2 153.7 46.3 L 152.7 46.5 Q 152.356 46.638 152.249 46.775 A 0.203 0.203 0 0 0 152.2 46.9 A 0.356 0.356 0 0 0 152.202 46.941 Q 152.216 47.056 152.308 47.113 A 0.328 0.328 0 0 0 152.4 47.15 Q 152.544 47.186 152.636 47.196 A 0.595 0.595 0 0 0 152.7 47.2 A 1.628 1.628 0 0 0 152.758 47.199 Q 153.272 47.181 154.5 46.85 Q 155.8 46.5 157.15 46.1 A 71.875 71.875 0 0 1 157.607 45.966 Q 158.309 45.763 158.719 45.663 A 7.094 7.094 0 0 1 159 45.6 Q 156.6 47 154.3 48.55 Q 152 50.1 149.7 51.8 A 0.992 0.992 0 0 0 149.657 51.514 Q 149.537 51.115 149.085 50.699 A 4.567 4.567 0 0 0 148.65 50.35 A 11.069 11.069 0 0 0 148.582 50.301 Q 147.854 49.79 147.399 49.651 A 1.042 1.042 0 0 0 147.1 49.6 A 0.673 0.673 0 0 0 147.058 49.601 Q 146.9 49.611 146.9 49.7 Q 146.9 50.6 147.1 51.6 L 147.5 53.6 Q 145.1 55.5 142.8 57.4 Q 140.5 59.3 138.6 61.8 A 33.53 33.53 0 0 1 138.849 60.662 Q 139.806 56.614 141.95 51.8 Q 144.4 46.3 147.7 40.6 A 140.318 140.318 0 0 1 148.53 39.186 A 126.786 126.786 0 0 1 154.6 29.9 A 117.273 117.273 0 0 1 156.26 27.65 Q 157.621 25.852 158.905 24.314 A 62.072 62.072 0 0 1 161.3 21.6 A 3.612 3.612 0 0 0 161.37 21.528 Q 161.613 21.272 161.831 20.943 A 6.076 6.076 0 0 0 162.2 20.3 A 4.969 4.969 0 0 0 162.248 20.201 Q 162.407 19.866 162.494 19.548 A 2.825 2.825 0 0 0 162.6 18.8 A 2.155 2.155 0 0 0 162.592 18.614 Q 162.522 17.8 161.8 17.8 Q 161.5 17.8 160.9 18.2 Q 158.6 19.7 156.85 21.85 Q 155.1 24 152.8 25.7 A 12.875 12.875 0 0 1 152.627 25.828 Q 151.52 26.629 150.5 27 A 8.36 8.36 0 0 0 150.454 27.046 Q 150.1 27.406 150.1 27.5 A 0.442 0.442 0 0 0 150.113 27.611 Q 150.148 27.747 150.281 27.785 A 0.432 0.432 0 0 0 150.4 27.8 A 0.81 0.81 0 0 0 150.486 27.795 Q 150.904 27.751 151.85 27.3 A 21.892 21.892 0 0 0 152.328 27.066 Q 152.999 26.726 153.3 26.5 Q 152.113 28.563 150.593 31.23 A 2057.978 2057.978 0 0 0 148.65 34.65 A 237.112 237.112 0 0 0 147.963 35.87 A 261.412 261.412 0 0 0 143.2 44.8 A 108.189 108.189 0 0 0 141.596 48.083 A 91.767 91.767 0 0 0 138.65 55.1 Q 136.8 60.1 136.8 63.7 A 1.634 1.634 0 0 0 136.801 63.756 Q 136.809 63.973 136.866 64.685 A 136.505 136.505 0 0 0 136.9 65.1 A 6.194 6.194 0 0 0 136.925 65.344 Q 136.999 65.944 137.168 66.168 Z M 132.036 65.582 A 3.693 3.693 0 0 0 133 65.7 A 1.955 1.955 0 0 0 133.154 65.694 Q 133.609 65.658 134.213 65.416 A 7.807 7.807 0 0 0 134.8 65.15 Q 135.9 64.6 136.8 63.8 A 4.03 4.03 0 0 0 137.152 63.448 Q 137.371 63.199 137.502 62.95 A 1.595 1.595 0 0 0 137.7 62.2 Q 137.7 62 137.5 62 A 0.176 0.176 0 0 0 137.458 62.005 Q 137.206 62.067 136.644 62.833 A 14.251 14.251 0 0 0 136.35 63.25 A 3.539 3.539 0 0 1 136.242 63.4 Q 135.793 63.992 135.179 64.265 A 2.868 2.868 0 0 1 134 64.5 A 2.156 2.156 0 0 1 133.803 64.491 Q 133.083 64.425 132.95 63.85 Q 132.8 63.2 132.8 62.5 A 11.89 11.89 0 0 1 132.83 61.67 Q 132.929 60.261 133.35 58.5 Q 133.9 56.2 134.7 53.9 A 79.023 79.023 0 0 1 135.07 52.86 Q 135.373 52.026 135.661 51.298 A 39.876 39.876 0 0 1 136.2 50 Q 136.6 49.4 136.6 49 A 1.002 1.002 0 0 0 136.585 48.822 Q 136.514 48.427 136.102 48.331 A 1.33 1.33 0 0 0 135.8 48.3 A 2.493 2.493 0 0 0 134.863 48.489 A 3.446 3.446 0 0 0 134.2 48.85 A 8.828 8.828 0 0 0 134.15 48.884 Q 133.384 49.419 132.9 50 A 54.47 54.47 0 0 0 132.651 50.293 Q 132.189 50.84 131.366 51.834 A 611.104 611.104 0 0 0 130.65 52.7 Q 129 54.7 127 57 A 76.448 76.448 0 0 1 126.736 57.303 Q 124.884 59.41 123.25 60.95 Q 121.5 62.6 120.7 62.6 A 0.442 0.442 0 0 1 120.589 62.587 Q 120.453 62.552 120.415 62.419 A 0.432 0.432 0 0 1 120.4 62.3 Q 120.4 62.125 121.051 60.955 A 50.645 50.645 0 0 1 121.25 60.6 Q 122.1 59.1 123.35 56.85 Q 124.6 54.6 125.85 52.1 A 62.81 62.81 0 0 0 126.867 49.97 A 48.723 48.723 0 0 0 127.95 47.4 Q 128.8 45.2 128.8 43.9 Q 128.8 43.32 128.68 42.835 A 2.947 2.947 0 0 0 128.1 41.65 A 2.154 2.154 0 0 0 127.789 41.342 Q 127.387 41.017 126.825 40.887 A 3.657 3.657 0 0 0 126 40.8 A 2.211 2.211 0 0 0 125.702 40.823 Q 125.216 40.89 124.4 41.15 A 9.257 9.257 0 0 0 123.673 41.414 A 7.55 7.55 0 0 0 122.45 42.05 A 3.92 3.92 0 0 0 122.389 42.091 Q 121.958 42.381 121.762 42.685 A 0.943 0.943 0 0 0 121.6 43.2 Q 121.6 43.4 121.8 43.4 A 0.953 0.953 0 0 0 122.068 43.357 Q 122.51 43.227 123.15 42.7 A 5.801 5.801 0 0 1 123.324 42.562 Q 124.063 42 124.6 42 A 0.787 0.787 0 0 1 124.718 42.009 Q 125.113 42.068 125.2 42.55 Q 125.27 42.937 125.291 43.2 A 2.554 2.554 0 0 1 125.3 43.4 Q 125.3 44.4 125.05 45.5 Q 124.8 46.6 124.5 47.5 Q 124.1 48.7 123.6 49.9 A 85.561 85.561 0 0 1 123.35 50.494 A 76.723 76.723 0 0 1 122.6 52.2 Q 121.8 54.3 120.95 56.5 Q 120.1 58.7 119.3 60.9 A 24.732 24.732 0 0 0 119.17 61.232 Q 119.022 61.619 118.85 62.1 Q 118.6 62.8 118.6 63.4 Q 118.6 64.1 119.2 64.1 A 2.386 2.386 0 0 0 119.716 64.04 Q 120.777 63.805 122.25 62.65 Q 124.1 61.2 126.05 59.15 A 131.83 131.83 0 0 0 127.47 57.634 A 110.688 110.688 0 0 0 129.65 55.2 A 448.475 448.475 0 0 1 130.382 54.359 Q 131.142 53.488 131.703 52.856 A 110.367 110.367 0 0 1 132.2 52.3 Q 131.7 54.8 130.75 57.15 Q 129.8 59.5 129.8 62.1 Q 129.8 63.5 130.6 64.6 A 2.542 2.542 0 0 0 132.036 65.582 Z M 182.2 64.4 L 181.9 63.7 Q 181.9 63.5 182.3 63.45 Q 182.681 63.402 182.79 63.4 A 0.492 0.492 0 0 1 182.8 63.4 L 186.1 63.4 Q 186.752 63.328 187.615 63.124 A 22.892 22.892 0 0 0 188.3 62.95 A 7.658 7.658 0 0 0 189.877 62.34 A 6.668 6.668 0 0 0 190.6 61.9 Q 191.6 61.2 191.6 60.1 A 1.634 1.634 0 0 0 191.116 58.916 A 2.007 2.007 0 0 0 191.1 58.9 Q 190.6 58.4 190.1 58.1 Q 188.1 56.8 185.85 55.15 Q 183.6 53.5 182.1 51.3 Q 180.6 49.1 180.6 46.4 A 9.077 9.077 0 0 1 181.284 43.005 A 12.477 12.477 0 0 1 182.35 40.95 Q 184.1 38.2 186.85 35.85 Q 189.6 33.5 192.65 32.1 A 17.378 17.378 0 0 1 195.054 31.194 Q 196.756 30.7 198.3 30.7 A 7.025 7.025 0 0 1 200.12 30.953 Q 201.006 31.19 201.95 31.65 Q 203.878 32.589 203.9 34.556 A 4.065 4.065 0 0 1 203.9 34.6 A 2.327 2.327 0 0 1 203.864 34.981 Q 203.797 35.386 203.599 35.949 A 11.96 11.96 0 0 1 203.45 36.35 A 3.119 3.119 0 0 1 203.22 36.825 Q 202.813 37.5 202.2 37.5 Q 202.01 37.5 201.955 37.183 A 1.181 1.181 0 0 1 201.95 37.15 Q 201.9 36.8 201.9 36.7 A 6.526 6.526 0 0 1 201.971 35.723 A 5.903 5.903 0 0 1 202 35.55 A 6.208 6.208 0 0 0 202.089 34.834 A 5.259 5.259 0 0 0 202.1 34.5 A 2.591 2.591 0 0 0 202.011 33.788 Q 201.699 32.7 200.3 32.7 A 4.979 4.979 0 0 0 199.295 32.813 Q 198.178 33.045 196.7 33.75 Q 194.5 34.8 192.4 36.15 A 41.399 41.399 0 0 0 191.185 36.96 Q 190.038 37.756 189.303 38.408 A 11.172 11.172 0 0 0 189.2 38.5 A 54.918 54.918 0 0 0 188.333 39.388 Q 187.954 39.785 187.546 40.225 A 97.672 97.672 0 0 0 186.7 41.15 Q 185.3 42.7 184.3 44.45 A 8.102 8.102 0 0 0 183.591 46.053 A 6.174 6.174 0 0 0 183.3 47.9 A 5.186 5.186 0 0 0 184.197 50.793 A 7.321 7.321 0 0 0 185 51.8 A 22.172 22.172 0 0 0 188.059 54.478 A 25.529 25.529 0 0 0 188.95 55.1 Q 191.2 56.6 192.9 58 Q 193.941 58.858 194.345 59.753 A 2.768 2.768 0 0 1 194.6 60.9 Q 194.6 62.5 192.85 63.4 Q 191.1 64.3 188.95 64.65 A 37.205 37.205 0 0 1 187.689 64.835 Q 186.48 64.989 185.621 64.999 A 10.095 10.095 0 0 1 185.5 65 A 6.334 6.334 0 0 1 185.28 64.995 Q 184.805 64.978 183.75 64.9 A 7.479 7.479 0 0 1 183.284 64.852 Q 182.363 64.725 182.2 64.4 Z M 161.184 65.025 A 4.734 4.734 0 0 0 162.5 65.2 A 8.002 8.002 0 0 0 164.068 65.037 Q 165.963 64.658 168.2 63.4 Q 171.4 61.6 174.35 59.15 A 131.549 131.549 0 0 0 174.414 59.097 Q 176.401 57.445 177.816 56.136 A 42.522 42.522 0 0 0 179 55 A 2.098 2.098 0 0 0 179.102 54.891 Q 179.224 54.75 179.271 54.635 A 0.36 0.36 0 0 0 179.3 54.5 A 0.442 0.442 0 0 0 179.287 54.389 Q 179.252 54.253 179.119 54.215 A 0.432 0.432 0 0 0 179 54.2 A 0.22 0.22 0 0 0 178.975 54.202 Q 178.911 54.209 178.829 54.252 A 0.931 0.931 0 0 0 178.75 54.3 A 2.312 2.312 0 0 1 178.748 54.302 Q 178.673 54.352 178.585 54.402 A 3.846 3.846 0 0 1 178.4 54.5 Q 177 55.8 174.25 57.8 Q 171.5 59.8 168.65 61.35 A 22.281 22.281 0 0 1 168.342 61.514 Q 166.657 62.397 165.316 62.717 A 6.12 6.12 0 0 1 163.9 62.9 Q 162.314 62.9 161.986 61.391 A 4.208 4.208 0 0 1 161.9 60.5 A 8.003 8.003 0 0 1 161.978 59.413 Q 162.173 57.997 162.85 56.25 Q 163.8 53.8 165.1 51.45 A 129.688 129.688 0 0 1 165.157 51.346 Q 166.017 49.797 166.699 48.668 A 41.012 41.012 0 0 1 167.3 47.7 A 8.063 8.063 0 0 0 167.807 47.872 A 6.685 6.685 0 0 0 168.85 48.1 A 10.86 10.86 0 0 0 168.897 48.106 A 11.751 11.751 0 0 0 170.4 48.2 A 5.259 5.259 0 0 0 170.734 48.189 A 6.208 6.208 0 0 0 171.45 48.1 A 7.9 7.9 0 0 1 171.688 48.06 Q 171.879 48.032 172.05 48.017 A 3.998 3.998 0 0 1 172.4 48 Q 173.6 48 175.1 47.95 Q 176.6 47.9 177.6 47.2 Q 177.731 47.069 177.841 46.981 A 1.531 1.531 0 0 1 177.95 46.9 Q 178.1 46.8 178.1 46.6 Q 178.1 46.4 177.9 46.4 A 0.886 0.886 0 0 0 177.881 46.4 A 0.675 0.675 0 0 0 177.4 46.6 Q 175.6 47.4 174 47.4 A 3.951 3.951 0 0 0 175.985 44.994 A 5.552 5.552 0 0 0 176.2 43.4 Q 176.2 42.3 175.8 41.05 Q 175.506 40.13 174.615 39.887 A 2.719 2.719 0 0 0 173.9 39.8 A 3.294 3.294 0 0 0 173.374 39.843 Q 172.794 39.936 172.204 40.236 A 5.952 5.952 0 0 0 171.25 40.85 Q 169.9 41.9 168.8 43.25 A 58.945 58.945 0 0 0 168.152 44.06 Q 167.847 44.447 167.581 44.801 A 29.48 29.48 0 0 0 167 45.6 A 10.457 10.457 0 0 0 166.933 45.534 Q 166.525 45.133 165.65 44.35 A 9.376 9.376 0 0 0 165.581 44.289 Q 164.93 43.717 164.497 43.56 A 0.878 0.878 0 0 0 164.2 43.5 A 0.702 0.702 0 0 0 164.09 43.508 Q 163.791 43.556 163.722 43.877 A 1.052 1.052 0 0 0 163.7 44.1 Q 163.7 44.644 164.047 45.188 A 3.522 3.522 0 0 0 164.45 45.7 A 13.908 13.908 0 0 0 164.556 45.811 Q 164.9 46.17 165.233 46.465 A 8.2 8.2 0 0 0 165.9 47 Q 164.6 48.6 162.9 51.2 Q 161.2 53.8 159.9 56.55 Q 159.169 58.097 158.849 59.47 A 8.953 8.953 0 0 0 158.6 61.5 A 4.68 4.68 0 0 0 158.642 62.137 A 3.301 3.301 0 0 0 159.7 64.2 A 3.7 3.7 0 0 0 161.184 65.025 Z M 203.142 65.78 A 0.576 0.576 0 0 0 203.3 65.8 Q 203.714 65.8 203.842 65.61 A 0.366 0.366 0 0 0 203.9 65.4 Q 203.9 61.6 205.8 56.45 A 76.652 76.652 0 0 1 207.224 52.874 A 91.413 91.413 0 0 1 210.6 45.85 Q 213.5 40.4 216.55 35.6 A 218.617 218.617 0 0 1 218.46 32.644 Q 220.322 29.816 221.8 27.8 A 56.513 56.513 0 0 1 221.963 27.588 A 51.696 51.696 0 0 1 224.45 24.6 Q 225.8 23.1 227.1 21.6 A 3.612 3.612 0 0 0 227.17 21.528 Q 227.413 21.272 227.631 20.943 A 6.076 6.076 0 0 0 228 20.3 A 4.969 4.969 0 0 0 228.048 20.201 Q 228.207 19.866 228.294 19.548 A 2.825 2.825 0 0 0 228.4 18.8 A 2.155 2.155 0 0 0 228.392 18.614 Q 228.322 17.8 227.6 17.8 A 0.894 0.894 0 0 0 227.479 17.809 Q 226.949 17.881 226.079 18.563 A 11.805 11.805 0 0 0 225.5 19.05 Q 224.1 20.3 222.85 21.75 A 522.293 522.293 0 0 0 222.657 21.974 Q 221.561 23.247 221.1 23.8 A 14.444 14.444 0 0 1 221.038 23.868 Q 220.069 24.92 219.1 25.55 A 17.218 17.218 0 0 1 218.811 25.734 Q 218.365 26.011 217.849 26.297 A 31.003 31.003 0 0 1 216.7 26.9 A 2.098 2.098 0 0 0 216.598 27.009 Q 216.476 27.15 216.429 27.265 A 0.36 0.36 0 0 0 216.4 27.4 A 0.442 0.442 0 0 0 216.413 27.511 Q 216.448 27.647 216.581 27.685 A 0.432 0.432 0 0 0 216.7 27.7 Q 217.2 27.7 218.15 27.15 A 82.148 82.148 0 0 1 218.297 27.065 Q 219.132 26.584 219.5 26.4 Q 218.4 28.4 217.2 30.45 Q 216 32.5 214.8 34.5 A 111.084 111.084 0 0 0 214.684 34.694 Q 213.81 36.158 212.877 37.82 A 183.396 183.396 0 0 0 210.95 41.35 Q 208.9 45.2 207.05 49.4 A 68.856 68.856 0 0 0 206.489 50.71 A 61.338 61.338 0 0 0 204.05 57.7 A 33.076 33.076 0 0 0 203.264 61.192 A 25.6 25.6 0 0 0 202.9 65.4 A 0.589 0.589 0 0 0 202.917 65.548 Q 202.964 65.729 203.142 65.78 Z M 226 57.1 L 226.1 57.1 A 0.183 0.183 0 0 1 226.205 57.129 Q 226.277 57.177 226.294 57.307 A 0.693 0.693 0 0 1 226.3 57.4 A 0.94 0.94 0 0 1 226.178 57.851 Q 226.097 58.001 225.961 58.151 A 2.543 2.543 0 0 1 225.7 58.4 A 6.874 6.874 0 0 1 225.083 58.764 Q 224.702 58.964 224.25 59.15 Q 223.4 59.5 222.5 59.5 A 3.837 3.837 0 0 1 221.108 59.258 Q 220.098 58.868 219.45 57.85 A 10.155 10.155 0 0 1 218.25 55.125 A 12.29 12.29 0 0 1 218 54.05 Q 217.694 52.404 217.505 51.08 A 45.091 45.091 0 0 1 217.4 50.3 Q 217.2 48.9 216.85 48.35 Q 216.5 47.8 216 47.8 A 1.315 1.315 0 0 0 215.702 47.84 Q 215.238 47.95 214.472 48.361 A 12.702 12.702 0 0 0 214.4 48.4 Q 211.4 50.3 209.6 53.7 A 102.503 102.503 0 0 0 207.172 58.586 A 88.623 88.623 0 0 0 206.4 60.3 Q 206.302 60.789 205.918 60.8 A 0.624 0.624 0 0 1 205.9 60.8 Q 205.423 60.8 205.401 60.071 A 2.391 2.391 0 0 1 205.4 60 Q 205.4 59.722 205.572 59.016 A 17.38 17.38 0 0 1 205.6 58.9 A 27.891 27.891 0 0 1 207.631 54.82 A 37.801 37.801 0 0 1 210.15 51.15 A 24.903 24.903 0 0 1 213.027 47.991 A 18.124 18.124 0 0 1 216.8 45.3 A 2.932 2.932 0 0 1 217.682 44.977 Q 218.051 44.902 218.473 44.9 A 4.967 4.967 0 0 1 218.5 44.9 A 2.661 2.661 0 0 1 219.104 44.962 Q 220.1 45.195 220.1 46.3 L 220.1 49.15 A 28.245 28.245 0 0 0 220.242 51.926 A 33.217 33.217 0 0 0 220.4 53.25 A 16.312 16.312 0 0 0 220.724 54.948 Q 220.995 56.033 221.4 56.9 Q 222.1 58.4 223.5 58.4 Q 224.243 58.4 224.737 58.124 A 1.679 1.679 0 0 0 225.05 57.9 A 19.437 19.437 0 0 1 225.434 57.56 Q 225.59 57.425 225.732 57.31 A 8.892 8.892 0 0 1 226 57.1 Z M 170.2 47 A 3.542 3.542 0 0 0 171.059 46.902 A 2.239 2.239 0 0 0 172.4 46 A 3.851 3.851 0 0 0 173.054 44.295 A 5.042 5.042 0 0 0 173.1 43.6 A 2.338 2.338 0 0 0 173.087 43.365 Q 173.076 43.252 173.054 43.123 A 5.452 5.452 0 0 0 173 42.85 A 0.646 0.646 0 0 0 172.91 42.629 Q 172.802 42.468 172.594 42.42 A 0.867 0.867 0 0 0 172.4 42.4 Q 171.89 42.4 171.199 42.979 A 5.744 5.744 0 0 0 170.95 43.2 Q 170.1 44 169.35 44.9 Q 168.776 45.589 168.407 46.044 A 46.149 46.149 0 0 0 168.2 46.3 A 2.228 2.228 0 0 0 168.296 46.345 Q 168.53 46.447 169.1 46.662 A 57.947 57.947 0 0 0 169.2 46.7 A 16.528 16.528 0 0 0 169.479 46.802 Q 170.035 46.999 170.199 47 A 0.28 0.28 0 0 0 170.2 47 Z" vector-effect="non-scaling-stroke" class="astro-DMQPWCEC"></path></g></svg>