<svg width="250" height="250" viewBox="0 0 187 187" fill="none" xmlns="http://www.w3.org/2000/svg"> <g clip-path="url(#clip0_15_137)"> <path d="M186.13 0H0V186.13H186.13V0Z" fill="#ED1C24"></path> <path d="M50.2551 94.0698L54.6478 104.233L63.5448 97.6063L62.2419 108.625L73.2608 107.359L66.6345 116.256L76.8344 120.612L66.6345 125.005L73.2608 133.902L62.2419 132.636L63.5448 143.655L54.6478 137.029L50.2551 147.191L45.8625 137.029L36.9655 143.655L38.2684 132.636L27.2495 133.902L33.8757 125.005L23.6758 120.612L33.8757 116.256L27.2495 107.359L38.2684 108.625L36.9655 97.6063L45.8625 104.233L50.2551 94.0698Z" fill="white"></path> <path d="M75.1592 39.4222C73.7446 47.3514 68.7563 54.052 61.8695 57.7374L60.1199 55.6527L66.3366 52.228L59.2637 51.744L63.6936 46.1973L56.9557 48.4309L58.9286 41.6186L53.6053 46.3463L52.8236 39.3105L49.6594 45.639L46.2346 39.4222L45.7507 46.4952L40.2412 42.0653L42.4748 48.8032L35.6624 46.8302L40.3157 52.1907L33.28 52.9725L39.6084 56.1367L38.231 58.2586C30.8975 54.6849 25.4997 47.7608 24.0479 39.4595C23.7873 40.9485 23.6384 42.4375 23.6384 44.001C23.6384 58.333 35.2529 69.9475 49.5849 69.9475C63.9169 69.9475 75.5314 58.333 75.5314 44.001C75.5314 42.4375 75.4197 40.9113 75.1592 39.4222Z" fill="white"></path> <path d="M95.1873 55.9506L101.888 62.6512L94.9267 69.6125L105.648 80.3708L109.668 76.3504L102.93 69.6125L109.892 62.6512L103.191 55.9506L110.227 48.9149L107.435 46.1229H112.088V78.6584H118.007V46.1601H124.782V57.2907H121.245V63.2096H124.782V67.1556H130.701V63.2096H139.002V67.2673L130.664 75.5686L134.684 79.5891L139.002 75.2336V78.6584H144.921V46.1601H150.133V78.6956H156.052V46.1601H159.849V40.2412H156.052H153.446L141.906 28.7012L137.885 32.7216L145.405 40.2412H94.7778V46.1601H104.978L95.1873 55.9506ZM130.701 46.1601H139.002V57.2907H130.701V46.1601Z" fill="white"></path> <path d="M158.657 106.95H156.051L144.511 95.4102L140.491 99.4306L148.01 106.95H124.856H120.686H77.6904V112.869H81.078L103.6 135.391L103.711 135.279V145.442H109.63V112.906H115.214V145.442H121.133V112.906H123.441H141.272V126.27L133.194 118.192L129.025 122.362L138.48 131.817L121.878 148.42L126.047 152.589L141.235 137.401V145.442H147.154V112.906H152.738V145.442H158.657V112.906H162.454V106.987H158.657V106.95ZM89.4166 112.869H103.711V127.164L89.4166 112.869Z" fill="white"></path> </g> <defs> <clipPath id="clip0_15_137"> <rect width="186.13" height="186.13" fill="white"></rect> </clipPath> </defs> </svg>